<svg fill="currentColor" xmlns="http://www.w3.org/2000/svg" xmlns:xlink="http://www.w3.org/1999/xlink" width="40" zoomAndPan="magnify" viewBox="0 0 30 37.5" height="50" preserveAspectRatio="xMidYMid meet" version="1.0">
  <defs>
    <clipPath id="4ee46a166a">
      <path d="M 1.859375 3 L 26 3 L 26 36.789062 L 1.859375 36.789062 Z M 1.859375 3 " clip-rule="nonzero"/>
    </clipPath>
    <clipPath id="d02078102e">
      <path d="M 22 0.523438 L 29.800781 0.523438 L 29.800781 9 L 22 9 Z M 22 0.523438 " clip-rule="nonzero"/>
    </clipPath>
  </defs>
  <g clip-path="url(#4ee46a166a)">
    <path fill="currentColor" d="M 19.679688 4.398438 L 19.679688 6.035156 C 18.773438 5.316406 17.773438 4.71875 16.710938 4.257812 C 15.652344 3.796875 14.515625 3.5625 13.363281 3.566406 C 11.839844 3.558594 10.328125 3.863281 8.925781 4.464844 C 7.566406 5.042969 6.324219 5.875 5.265625 6.914062 C 4.207031 7.964844 3.363281 9.207031 2.777344 10.574219 C 2.164062 11.992188 1.851562 13.523438 1.859375 15.070312 C 1.851562 16.59375 2.15625 18.105469 2.757812 19.507812 C 3.339844 20.867188 4.167969 22.109375 5.207031 23.167969 C 6.253906 24.222656 7.496094 25.0625 8.867188 25.636719 C 10.289062 26.238281 11.820312 26.546875 13.363281 26.539062 C 14.515625 26.542969 15.65625 26.304688 16.710938 25.847656 C 17.335938 25.578125 17.933594 25.257812 18.5 24.890625 L 17.15625 24.351562 L 18.734375 23.117188 L 20.308594 21.882812 L 20.871094 25.84375 L 19.683594 25.367188 L 19.683594 25.53125 C 19.683594 26.257812 19.535156 26.976562 19.246094 27.644531 C 18.957031 28.324219 18.5625 28.949219 18.074219 29.503906 C 17.601562 30.050781 17.035156 30.503906 16.402344 30.84375 C 15.804688 31.171875 15.136719 31.34375 14.453125 31.34375 C 13.34375 31.410156 12.230469 31.175781 11.234375 30.675781 C 10.480469 30.226562 9.828125 29.628906 9.316406 28.917969 L 4.125 32.476562 C 5.253906 33.925781 6.738281 35.066406 8.433594 35.78125 C 10.332031 36.605469 12.386719 37.019531 14.457031 36.992188 L 18.746094 36.09375 C 20.105469 35.507812 21.34375 34.679688 22.40625 33.644531 C 23.472656 32.601562 24.339844 31.367188 24.957031 30.003906 C 25.597656 28.601562 25.929688 27.074219 25.917969 25.527344 L 25.917969 4.40625 Z M 19.390625 17.355469 C 19.097656 18.042969 18.679688 18.667969 18.15625 19.199219 C 17.628906 19.722656 17.003906 20.140625 16.316406 20.429688 C 15.59375 20.738281 14.816406 20.894531 14.035156 20.886719 C 13.25 20.890625 12.472656 20.734375 11.753906 20.425781 C 11.070312 20.136719 10.445312 19.71875 9.914062 19.195312 C 9.386719 18.667969 8.96875 18.042969 8.679688 17.355469 C 8.371094 16.632812 8.214844 15.855469 8.222656 15.074219 C 8.214844 14.289062 8.375 13.511719 8.679688 12.792969 C 8.96875 12.109375 9.386719 11.484375 9.914062 10.953125 C 10.441406 10.425781 11.066406 10.007812 11.753906 9.71875 C 12.472656 9.410156 13.25 9.253906 14.035156 9.261719 C 14.816406 9.253906 15.59375 9.410156 16.316406 9.71875 C 17 10.007812 17.625 10.425781 18.15625 10.953125 C 18.679688 11.480469 19.101562 12.105469 19.390625 12.792969 C 19.699219 13.511719 19.851562 14.289062 19.847656 15.074219 C 19.851562 15.859375 19.695312 16.636719 19.390625 17.355469 Z M 19.390625 17.355469 "/>
  </g>
  <g clip-path="url(#d02078102e)">
    <path fill="currentColor" d="M 25.917969 0.523438 C 28.03125 0.496094 29.769531 2.1875 29.796875 4.300781 C 29.859375 6.445312 28.164062 8.226562 26.023438 8.285156 C 23.878906 8.34375 22.097656 6.652344 22.039062 4.507812 C 21.980469 2.367188 23.671875 0.582031 25.816406 0.523438 C 25.847656 0.523438 25.882812 0.523438 25.917969 0.523438 Z M 25.917969 0.523438 "/>
  </g>
  <path fill="currentColor" d="M 25.914062 1.824219 C 27.308594 1.808594 28.453125 2.921875 28.476562 4.316406 C 28.511719 5.730469 27.398438 6.90625 25.984375 6.945312 C 24.570312 6.984375 23.390625 5.871094 23.355469 4.453125 C 23.316406 3.039062 24.429688 1.863281 25.84375 1.824219 C 25.871094 1.824219 25.894531 1.824219 25.914062 1.824219 Z M 25.914062 1.824219 "/>
  <path fill="currentColor" d="M 25.917969 2.96875 C 26.660156 2.960938 27.269531 3.554688 27.277344 4.296875 C 27.296875 5.046875 26.703125 5.671875 25.953125 5.691406 C 25.199219 5.707031 24.574219 5.117188 24.558594 4.363281 C 24.539062 3.613281 25.132812 2.988281 25.882812 2.96875 C 25.894531 2.96875 25.90625 2.96875 25.917969 2.96875 Z M 25.917969 2.96875 "/>
</svg>
